<?xml version="1.0" encoding="utf-8"?>
<!-- Generator: Adobe Illustrator 16.0.4, SVG Export Plug-In . SVG Version: 6.00 Build 0)  -->
<!DOCTYPE svg PUBLIC "-//W3C//DTD SVG 1.1//EN" "http://www.w3.org/Graphics/SVG/1.1/DTD/svg11.dtd">
<svg version="1.1" id="Layer_1" xmlns="http://www.w3.org/2000/svg" xmlns:xlink="http://www.w3.org/1999/xlink" x="0px" y="0px"
	 width="595.28px" height="841.89px" viewBox="0 0 595.28 841.89" enable-background="new 0 0 595.28 841.89" xml:space="preserve">
<g>
	<defs>
		<rect id="SVGID_1_" width="595.28" height="841.89"/>
	</defs>
	<clipPath id="SVGID_2_">
		<use xlink:href="#SVGID_1_"  overflow="visible"/>
	</clipPath>
	<g clip-path="url(#SVGID_2_)">
		<defs>
			<rect id="SVGID_3_" width="595.28" height="841.89"/>
		</defs>
		<clipPath id="SVGID_4_">
			<use xlink:href="#SVGID_3_"  overflow="visible"/>
		</clipPath>
		<path clip-path="url(#SVGID_4_)" fill="#FCB515" d="M174.88,429.112c-47.657-75.535-8.865-111.659-8.865-111.659l12.112-5.716
			l-9.207-8.956c-28.551-17.897-10.736-46.253-10.736-46.253s0.831-4.635,1.366-12.873c3.745-57.668,29.456-70.62,29.456-70.62
			c83.587-69.763,169.832-0.274,169.832-0.274c52.398,44.669,19.749,159.329,19.749,159.329
			c12.111,58.866-18.81,98.642-18.65,101.446c2.707,47.838,17.81,103.156,17.81,103.156
			c-10.115,59.266-113.962,62.956-113.962,62.956c-35.988-0.754-59.71-21.511-59.71-21.511
			c8.271-40.533,10.915-105.004,10.915-105.004C195.452,465.196,174.88,429.112,174.88,429.112"/>
		
			<path clip-path="url(#SVGID_4_)" fill="none" stroke="#000000" stroke-width="1.5" stroke-linecap="round" stroke-linejoin="round" stroke-miterlimit="10" d="
			M174.88,429.112c-47.657-75.535-8.865-111.659-8.865-111.659l12.112-5.716l-9.207-8.956
			c-28.551-17.897-10.736-46.253-10.736-46.253s0.831-4.635,1.366-12.873c3.745-57.668,29.456-70.62,29.456-70.62
			c83.587-69.763,169.832-0.274,169.832-0.274c52.398,44.669,19.749,159.329,19.749,159.329
			c12.111,58.866-18.81,98.642-18.65,101.446c2.707,47.838,17.81,103.156,17.81,103.156
			c-10.115,59.266-113.962,62.956-113.962,62.956c-35.988-0.754-59.71-21.511-59.71-21.511
			c8.271-40.533,10.915-105.004,10.915-105.004C195.452,465.196,174.88,429.112,174.88,429.112z"/>
		<path clip-path="url(#SVGID_4_)" fill="#FFFFFF" d="M209.11,299.417c0,0-9.837-7.797-28.504-3.572c0,0-20.809,5.115-16.07,18.24
			c0,0,1.36,5.038,8.331,7.066c0,0,25.339-0.963,32.106-4.25C204.973,316.901,209.884,312.31,209.11,299.417"/>
		
			<path clip-path="url(#SVGID_4_)" fill="none" stroke="#000000" stroke-width="1.5" stroke-linecap="round" stroke-linejoin="round" stroke-miterlimit="10" d="
			M209.11,299.417c0,0-9.837-7.797-28.504-3.572c0,0-20.809,5.115-16.07,18.24c0,0,1.36,5.038,8.331,7.066
			c0,0,25.339-0.963,32.106-4.25C204.973,316.901,209.884,312.31,209.11,299.417z"/>
		<path clip-path="url(#SVGID_4_)" fill="#FFFFFF" d="M304.195,306.629c0,0-9.769-14.864-32.04-14.54c0,0-22.581,0.761-22.13,17.567
			c0,0,0.493,6.077,4.551,8.042c0,0,51.318,7.707,50.926-6.079C305.503,311.619,305.559,308.368,304.195,306.629"/>
		
			<path clip-path="url(#SVGID_4_)" fill="none" stroke="#000000" stroke-width="1.5" stroke-linecap="round" stroke-linejoin="round" stroke-miterlimit="10" d="
			M304.195,306.629c0,0-9.769-14.864-32.04-14.54c0,0-22.581,0.761-22.13,17.567c0,0,0.493,6.077,4.551,8.042
			c0,0,51.318,7.707,50.926-6.079C305.503,311.619,305.559,308.368,304.195,306.629z"/>
		<path clip-path="url(#SVGID_4_)" d="M277.462,303.032c0.139,2.336,2.145,4.117,4.48,3.978c2.335-0.139,4.116-2.144,3.977-4.48
			c-0.139-2.335-2.145-4.116-4.48-3.977C279.105,298.691,277.323,300.697,277.462,303.032"/>
		<path clip-path="url(#SVGID_4_)" d="M191.914,303.906c0.139,2.335,2.144,4.116,4.479,3.977c2.336-0.138,4.117-2.144,3.978-4.479
			c-0.139-2.335-2.145-4.116-4.48-3.977C193.556,299.565,191.775,301.571,191.914,303.906"/>
		<path clip-path="url(#SVGID_4_)" fill="#FCB515" d="M369.778,322.861c0,0,23.499-45.484,35.729-7.473
			c0,0,6.852,33.65-15.382,49.845c0,0-20.231,19.224-28.741,0.054"/>
		
			<path clip-path="url(#SVGID_4_)" fill="none" stroke="#000000" stroke-width="1.5" stroke-linecap="round" stroke-linejoin="round" stroke-miterlimit="10" d="
			M369.778,322.861c0,0,23.499-45.484,35.729-7.473c0,0,6.852,33.65-15.382,49.845c0,0-20.231,19.224-28.741,0.054"/>
		<path clip-path="url(#SVGID_4_)" fill="#FCB515" d="M369.443,340.701c0,0,15.795-25.611,29.443-19.241"/>
		
			<path clip-path="url(#SVGID_4_)" fill="none" stroke="#000000" stroke-width="1.5" stroke-linecap="round" stroke-linejoin="round" stroke-miterlimit="10" d="
			M369.443,340.701c0,0,15.795-25.611,29.443-19.241"/>
		<path clip-path="url(#SVGID_4_)" fill="#FCB515" d="M371.309,352.141c0,0,30.712-9.499,5.932-21.56"/>
		
			<path clip-path="url(#SVGID_4_)" fill="none" stroke="#000000" stroke-width="1.5" stroke-linecap="round" stroke-linejoin="round" stroke-miterlimit="10" d="
			M371.309,352.141c0,0,30.712-9.499,5.932-21.56"/>
		<g opacity="0.32" clip-path="url(#SVGID_4_)">
			<g>
				<defs>
					<rect id="SVGID_5_" x="155.418" y="317.453" width="225.412" height="162.133"/>
				</defs>
				<clipPath id="SVGID_6_">
					<use xlink:href="#SVGID_5_"  overflow="visible"/>
				</clipPath>
				<path clip-path="url(#SVGID_6_)" d="M372.934,317.453c0,0-28.133,67.818,7.896,54.161c0,0-4.725,97.01-102.041,102.982
					c0,0-48.686,16.631-77.392-10.831c0,0-34.09-35.162-45.978-77.687c0,0,0.057,15.513,23.01,11.965
					c0,0,4.684,40.484,39.816,34.863c0,0,15.927-7.025,37.943-0.468c0,0,37.942,0.396,37.006-28.611
					c0,0,45.905,20.095,61.832-83.385L372.934,317.453z"/>
			</g>
		</g>
		<g opacity="0.5" clip-path="url(#SVGID_4_)">
			<g>
				<defs>
					<rect id="SVGID_7_" x="247.329" y="270.556" width="70.108" height="21.528"/>
				</defs>
				<clipPath id="SVGID_8_">
					<use xlink:href="#SVGID_7_"  overflow="visible"/>
				</clipPath>
				<path clip-path="url(#SVGID_8_)" d="M316.015,287.262c0,0-17.144-24.676-59.033-14.047l-8.568,2.58
					c0,0-5.573,10.894,8.539,10.704c0,0,33.028-12.005,58.788,5.084C315.741,291.583,319.368,294.254,316.015,287.262"/>
			</g>
		</g>
		<g opacity="0.5" clip-path="url(#SVGID_4_)">
			<g>
				<defs>
					<rect id="SVGID_9_" x="153.3" y="270.135" width="53.774" height="18.964"/>
				</defs>
				<clipPath id="SVGID_10_">
					<use xlink:href="#SVGID_9_"  overflow="visible"/>
				</clipPath>
				<path clip-path="url(#SVGID_10_)" d="M207.074,289.099c0,0-4.13-17.935-32.8-18.831c0,0-16.296-1.712-19.419,7.152
					c0,0-3.541,10.916,0.063,9.422C154.918,286.842,179.931,276.065,207.074,289.099"/>
			</g>
		</g>
		<path clip-path="url(#SVGID_4_)" fill="#33240C" d="M396.104,301.026c0.502-0.528,8.096-22.868,12.643-33.135
			c3.133-7.076,7.463-27.701,9.031-35.278c2.062-9.963-2.176-23.504-6.63-32.652c3.179,0.51,6.197,1.967,8.572,4.138
			c1.072-13.532-3.938-27.431-13.398-37.165c-9.461-9.734-23.211-15.139-36.769-14.453c-0.109-32.59-29.68-46.775-44.453-53.066
			c0.004,3.372,0.007,6.744,0.011,10.116c-15.445-10.846-47.444-22.307-75.071-18.645c2.417,1.847,4.834,3.693,7.251,5.54
			c-35.101-9.748-85.818,17.501-103.235,49.498c1.342-0.34,2.685-0.68,4.027-1.02c-1.336,3.601-2.732,7.301-5.33,10.131
			s-6.723,4.612-10.353,3.354c1.207,4.715,3.486,9.151,6.614,12.879c-2.401,0.231-4.803,0.462-7.205,0.693
			c-3.642,11.93,5.601,16.03,4.653,18.631c-0.382,1.047-3.019,18.922-2.629,23.132c3.157,33.997,9.055,29.441,11.585,47.577
			c-0.046-0.335,1.219-2.033,1.386-2.383c1.575-3.303,2.349-7.073,3.03-10.639c1.315-6.877,1.089-13.397,1.546-20.235
			c0.527-7.888,2.477-15.677,5.752-22.873c-0.284,1.992,0.452,4.102,1.913,5.485c1.018-2.468,2.035-4.935,3.052-7.403
			c0.317,1.378,0.634,2.755,0.952,4.133c3.309-6.599,6.814-13.375,12.52-18.058c7.524-6.177,17.733-7.802,27.444-8.484
			c9.88-0.694,19.813-0.649,29.687,0.134c22.679,1.798,46.021,7.411,67.735,0.623c-1.911,0.597,2.535,9.362,3.167,10.212
			c2.279,3.063,5.54,5.347,9.231,6.343c4.266,1.151,7.934,2.727,11.556,5.342c8.182,5.907,13.177,14.983,14.705,24.885
			c1.241,8.039-2.686,17.712-4.514,25.592c0,0-15.729,16.582-10.953,25.236c0,0,25.208,17.537,18.385,57.804
			c0,0,5.337,4.09,14.247,0c0.955-0.439,2.576-9.053,3.084-10.189C382,298.544,394.086,303.149,396.104,301.026"/>
		
			<path clip-path="url(#SVGID_4_)" fill="none" stroke="#000000" stroke-width="1.5" stroke-linecap="round" stroke-linejoin="round" stroke-miterlimit="10" d="
			M396.104,301.026c0.502-0.528,8.096-22.868,12.643-33.135c3.133-7.076,7.463-27.701,9.031-35.278
			c2.062-9.963-2.176-23.504-6.63-32.652c3.179,0.51,6.197,1.967,8.572,4.138c1.072-13.532-3.938-27.431-13.398-37.165
			c-9.461-9.734-23.211-15.139-36.769-14.453c-0.109-32.59-29.68-46.775-44.453-53.066c0.004,3.372,0.007,6.744,0.011,10.116
			c-15.445-10.846-47.444-22.307-75.071-18.645c2.417,1.847,4.834,3.693,7.251,5.54c-35.101-9.748-85.818,17.501-103.235,49.498
			c1.342-0.34,2.685-0.68,4.027-1.02c-1.336,3.601-2.732,7.301-5.33,10.131s-6.723,4.612-10.353,3.354
			c1.207,4.715,3.486,9.151,6.614,12.879c-2.401,0.231-4.803,0.462-7.205,0.693c-3.642,11.93,5.601,16.03,4.653,18.631
			c-0.382,1.047-3.019,18.922-2.629,23.132c3.157,33.997,9.055,29.441,11.585,47.577c-0.046-0.335,1.219-2.033,1.386-2.383
			c1.575-3.303,2.349-7.073,3.03-10.639c1.315-6.877,1.089-13.397,1.546-20.235c0.527-7.888,2.477-15.677,5.752-22.873
			c-0.284,1.992,0.452,4.102,1.913,5.485c1.018-2.468,2.035-4.935,3.052-7.403c0.317,1.378,0.634,2.755,0.952,4.133
			c3.309-6.599,6.814-13.375,12.52-18.058c7.524-6.177,17.733-7.802,27.444-8.484c9.88-0.694,19.813-0.649,29.687,0.134
			c22.679,1.798,46.021,7.411,67.735,0.623c-1.911,0.597,2.535,9.362,3.167,10.212c2.279,3.063,5.54,5.347,9.231,6.343
			c4.266,1.151,7.934,2.727,11.556,5.342c8.182,5.907,13.177,14.983,14.705,24.885c1.241,8.039-2.686,17.712-4.514,25.592
			c0,0-15.729,16.582-10.953,25.236c0,0,25.208,17.537,18.385,57.804c0,0,5.337,4.09,14.247,0c0.955-0.439,2.576-9.053,3.084-10.189
			C382,298.544,394.086,303.149,396.104,301.026z"/>
		<g opacity="0.15" clip-path="url(#SVGID_4_)">
			<g>
				<defs>
					<rect id="SVGID_11_" x="163.6" y="364.455" width="141.654" height="26.645"/>
				</defs>
				<clipPath id="SVGID_12_">
					<use xlink:href="#SVGID_11_"  overflow="visible"/>
				</clipPath>
				<path clip-path="url(#SVGID_12_)" d="M303.464,380.753c-5.421-6.836-13.499-11.245-21.964-13.354
					c-8.466-2.109-17.337-2.064-26.016-1.172c-0.21-0.708,0.23-1.545,0.934-1.772c-14.453,0.044-28.905,0.315-43.35,0.811
					c-2.212,0.076-4.472,0.166-6.539,0.959c-0.909,0.349-1.769,0.829-2.704,1.1c-1.395,0.404-2.908,0.562-4.327,0.256
					c-20.532-4.421-27.235,4.15-27.792,5.427c-0.556,1.276-1.6,2.262-2.528,3.3c-2.978,3.335-4.945,7.561-5.578,11.986
					c1.168-0.503,2.212-1.29,3.017-2.275c0.866,1.981,2.227,3.743,3.925,5.081c2.734-6.135,8.583-10.783,15.177-12.059
					c-1.002,0.962-1.739,2.197-2.108,3.536c7.83-0.001,15.743-1.02,23.019-3.914c12.835,1.984,25.849,2.804,38.832,2.447
					c-0.497-0.667-0.994-1.333-1.49-2c6.643-1.26,13.429-1.77,20.186-1.517c0.1-0.714-0.086-1.465-0.509-2.049
					c5.779-1.035,11.79-1.51,17.477-0.049c5.686,1.461,11.04,5.111,13.397,10.489c0.7-0.608,1.072-1.574,0.96-2.495
					c2.531,0.98,4.369,3.539,4.491,6.25c2.12-2.367,2.512-6.12,0.926-8.873c1.451-0.07,2.902-0.139,4.354-0.209"/>
			</g>
		</g>
		
			<path clip-path="url(#SVGID_4_)" fill="none" stroke="#000000" stroke-width="1.5" stroke-linecap="round" stroke-linejoin="round" stroke-miterlimit="10" d="
			M200.378,401.747c0,0,43.322,8.002,79.427-11.397"/>
		
			<path clip-path="url(#SVGID_4_)" fill="none" stroke="#000000" stroke-width="1.5" stroke-linecap="round" stroke-linejoin="round" stroke-miterlimit="10" d="
			M290.585,393.631c0,0-9.096-3.282-14.149-7.293"/>
		
			<path clip-path="url(#SVGID_4_)" fill="none" stroke="#000000" stroke-width="1.5" stroke-linecap="round" stroke-linejoin="round" stroke-miterlimit="10" d="
			M196.143,384.557c0,0-22.393,12.833,3.607,17.083c0,0-3.625,13,7.125,18.125"/>
		<path clip-path="url(#SVGID_4_)" d="M315.666,303.649c0,0,0.042,0.012,0.111,0.031
			C315.739,303.669,315.706,303.66,315.666,303.649"/>
		
			<path clip-path="url(#SVGID_4_)" fill="none" stroke="#000000" stroke-width="1.5" stroke-linecap="round" stroke-linejoin="round" stroke-miterlimit="10" d="
			M315.666,303.649c0,0,0.042,0.012,0.111,0.031C315.739,303.669,315.706,303.66,315.666,303.649z"/>
		<path clip-path="url(#SVGID_4_)" d="M131.865,297.748l5.783,3.403c0,0,0.097,23.738,2.651,29.143
			c1.589,3.362,13.824,11.71,29.134,12.938c0,0,24.645,3.746,37.126-4.72c2.825-1.917,7.904-21.051,7.721-31.717
			c0,0-0.879-15.981,15.309,10.418c0,0,1.857,15.727,5.76,18.829c2.28,1.813,19.678,6.623,36.858,6.257
			c0,0,23.648,0.879,35.629-7.477c0,0,4.325-2.625,4.8-26.344c0,0-0.729-5.871,3.03-4.828l1.762-24.306
			c0,0-41.196-14.298-85.341,3.409c0,0-13.037,3.121-28.675-1.625c0,0-50.864-9.94-70.458,1.596L131.865,297.748z M259.31,281.761
			c0,0,34.711-2.332,43.475,1.879c0,0,5.911,3.468,5.298,25.428c0,0,0.006,12.889-4.075,19.412
			c-4.648,7.433-20.126,10.977-36.194,9.973c0,0-20.062,0.432-30.903-6.183c0,0-2.611-6.267-2.864-16.732
			c0,0-0.846-18.309,0.252-21.74C235.727,289.337,243.185,282.186,259.31,281.761 M144.53,294.993c0,0,2.036-13.525,30.348-12.876
			c0,0,33.545,0.674,34.243,16.99c0,0-0.367,28.052-4.721,33.41c-3.445,4.238-9.568,5.984-16.491,7.011
			c0,0-26.443,4.772-42.929-9.074c-3.414-2.868-2.231-13.265-1.947-20.014C143.033,310.439,143.686,296.944,144.53,294.993"/>
		
			<path clip-path="url(#SVGID_4_)" fill="none" stroke="#000000" stroke-width="1.5" stroke-linecap="round" stroke-linejoin="round" stroke-miterlimit="10" d="
			M131.865,297.748l5.783,3.403c0,0,0.097,23.738,2.651,29.143c1.589,3.362,13.824,11.71,29.134,12.938
			c0,0,24.645,3.746,37.126-4.72c2.825-1.917,7.904-21.051,7.721-31.717c0,0-0.879-15.981,15.309,10.418
			c0,0,1.857,15.727,5.76,18.829c2.28,1.813,19.678,6.623,36.858,6.257c0,0,23.648,0.879,35.629-7.477c0,0,4.325-2.625,4.8-26.344
			c0,0-0.729-5.871,3.03-4.828l1.762-24.306c0,0-41.196-14.298-85.341,3.409c0,0-13.037,3.121-28.675-1.625
			c0,0-50.864-9.94-70.458,1.596L131.865,297.748z M259.31,281.761c0,0,34.711-2.332,43.475,1.879c0,0,5.911,3.468,5.298,25.428
			c0,0,0.006,12.889-4.075,19.412c-4.648,7.433-20.126,10.977-36.194,9.973c0,0-20.062,0.432-30.903-6.183
			c0,0-2.611-6.267-2.864-16.732c0,0-0.846-18.309,0.252-21.74C235.727,289.337,243.185,282.186,259.31,281.761z M144.53,294.993
			c0,0,2.036-13.525,30.348-12.876c0,0,33.545,0.674,34.243,16.99c0,0-0.367,28.052-4.721,33.41
			c-3.445,4.238-9.568,5.984-16.491,7.011c0,0-26.443,4.772-42.929-9.074c-3.414-2.868-2.231-13.265-1.947-20.014
			C143.033,310.439,143.686,296.944,144.53,294.993z"/>
		<path clip-path="url(#SVGID_4_)" d="M382.019,307.518l-64.552-25.674l-0.039,16.195c0,0,60.206,16.749,58.422,16.802
			C375.85,314.841,379.105,310.723,382.019,307.518"/>
		
			<path clip-path="url(#SVGID_4_)" fill="none" stroke="#000000" stroke-width="1.5" stroke-linecap="round" stroke-linejoin="round" stroke-miterlimit="10" d="
			M382.019,307.518l-64.552-25.674l-0.039,16.195c0,0,60.206,16.749,58.422,16.802C375.85,314.841,379.105,310.723,382.019,307.518z
			"/>
		<path clip-path="url(#SVGID_4_)" fill="#FCB515" d="M234.539,360.843c-5.89,6.385-16.018,1.716-16.018,1.716
			c-51.34,11.341-30.481-21.667-30.481-21.667c19.034-28.326,21.153-46.302,21.153-46.302s16.985-4.055,20.396,22.623
			c0,0,0.355,17.611,7.713,19.802"/>
		
			<path clip-path="url(#SVGID_4_)" fill="none" stroke="#000000" stroke-width="1.5" stroke-linecap="round" stroke-linejoin="round" stroke-miterlimit="10" d="
			M234.539,360.843c-5.89,6.385-16.018,1.716-16.018,1.716c-51.34,11.341-30.481-21.667-30.481-21.667
			c19.034-28.326,21.153-46.302,21.153-46.302s16.985-4.055,20.396,22.623c0,0,0.355,17.611,7.713,19.802"/>
		<path clip-path="url(#SVGID_4_)" fill="#0A0A0A" d="M511.169,970.455c1.336,10.438,1.115,22.042,0.007,33.714
			c-59.781,4.685-125.206,2.06-184.935,7.402c-9.871,0.883-18.243-44.403-32.226-45.177c-65.948-3.651-115.576-8.226-115.576-8.226
			l-97.328,62.122c-2.477-5.45-18.692-13.868-18.692-13.868c10.736-28.032,33.557-102.936,33.557-102.936
			c-11.562-10.901-7.069-91.432-7.069-91.432c-1.334-22.531-1.785-30.895-1.785-30.895
			C63.396,642.015,75.068,614.171,75.068,614.171c2.478-56.065,72.117-81.517,72.117-81.517c9.91-13.238,39.533-19.16,39.533-19.16
			c10.629-21.497,23.565-26.885,23.565-26.885c3.639,7.685,0,18.935,0,18.935c4.465,11.826,33.281,27.11,33.281,27.11
			c5.293-4.672,18.932,0,18.932,0c83.294-13.586,104.341-64.399,104.341-64.399c27.498,11.629,28.093,25.086,28.093,25.086
			l0.826,6.625c70.831,16.971,131.666,56.581,131.666,56.581c99.098,87.215,98.534,225.464,98.534,225.464
			c-7.433,32.704-99.924,190.001-99.924,190.001C521.904,973.57,511.169,970.455,511.169,970.455"/>
		
			<path clip-path="url(#SVGID_4_)" fill="none" stroke="#020202" stroke-width="1.5" stroke-linecap="round" stroke-linejoin="round" stroke-miterlimit="10" d="
			M511.169,970.455c1.336,10.438,1.115,22.042,0.007,33.714c-59.781,4.685-125.206,2.06-184.935,7.402
			c-9.871,0.883-18.243-44.403-32.226-45.177c-65.948-3.651-115.576-8.226-115.576-8.226l-97.328,62.122
			c-2.477-5.45-18.692-13.868-18.692-13.868c10.736-28.032,33.557-102.936,33.557-102.936c-11.562-10.901-7.069-91.432-7.069-91.432
			c-1.334-22.531-1.785-30.895-1.785-30.895C63.396,642.015,75.068,614.171,75.068,614.171
			c2.478-56.065,72.117-81.517,72.117-81.517c9.91-13.238,39.533-19.16,39.533-19.16c10.629-21.497,23.565-26.885,23.565-26.885
			c3.639,7.685,0,18.935,0,18.935c4.465,11.826,33.281,27.11,33.281,27.11c5.293-4.672,18.932,0,18.932,0
			c83.294-13.586,104.341-64.399,104.341-64.399c27.498,11.629,28.093,25.086,28.093,25.086l0.826,6.625
			c70.831,16.971,131.666,56.581,131.666,56.581c99.098,87.215,98.534,225.464,98.534,225.464
			c-7.433,32.704-99.924,190.001-99.924,190.001C521.904,973.57,511.169,970.455,511.169,970.455z"/>
		
			<polyline clip-path="url(#SVGID_4_)" fill="none" stroke="#020202" stroke-width="1.5" stroke-linecap="round" stroke-linejoin="round" stroke-miterlimit="10" points="
			262.497,532.655 292.295,591.835 344.455,542.981 		"/>
		
			<polyline clip-path="url(#SVGID_4_)" fill="none" stroke="#020202" stroke-width="1.5" stroke-linecap="round" stroke-linejoin="round" stroke-miterlimit="10" points="
			243.565,532.655 219.063,587.942 197.774,560.298 		"/>
		
			<path clip-path="url(#SVGID_4_)" fill="none" stroke="#020202" stroke-width="1.5" stroke-linecap="round" stroke-linejoin="round" stroke-miterlimit="10" d="
			M395.757,499.967l4.775,59.459l-31.146,23.17l31.146,5.346c0,0-7.96,86.762-60.771,146.566c0,0-38.548,60.932-30.122,100.425"/>
		
			<path clip-path="url(#SVGID_4_)" fill="none" stroke="#020202" stroke-width="1.5" stroke-linecap="round" stroke-linejoin="round" stroke-miterlimit="10" d="
			M186.718,513.495l-33.785,65.716l16.893,21.44h-26.418c0,0-18.903,30.046-4.693,100.006c0,0,25.398,64.316,16.813,91.397"/>
		
			<path clip-path="url(#SVGID_4_)" fill="none" stroke="#020202" stroke-width="1.5" stroke-linecap="round" stroke-linejoin="round" stroke-miterlimit="10" d="
			M527.423,556.548c0,0-86.881,61.845-43.801,163.398c0,0,12.76,5.224,11.214,25.533c0,0-0.351,19.183,6.83,20.312
			c0,0-10.771,11.283,0,16.926c0,0-17.95,11.284-11.967,29.338c0,0-16.754,63.188-38.294,90.27c0,0,10.63,43.732,59.764,68.13"/>
		
			<path clip-path="url(#SVGID_4_)" fill="none" stroke="#020202" stroke-width="1.5" stroke-linecap="round" stroke-linejoin="round" stroke-miterlimit="10" d="
			M95.977,1009.389l82.463-51.22c0,0-12.35-70.202,0-180.784c0,0,13.445-33.431,8.279-71.796c0,0-6.993-63.165,5.887-91.951"/>
		
			<path clip-path="url(#SVGID_4_)" fill="none" stroke="#020202" stroke-width="1.5" stroke-linecap="round" stroke-linejoin="round" stroke-miterlimit="10" d="
			M95.977,903.487c0,0-26.163-282.837,11.116-333.613"/>
		<path clip-path="url(#SVGID_4_)" fill="#FFFFFF" d="M366.838,468.256c0,0-25.715,108.005-41.341,131.365
			c0,0,14.081,256.507-23.157,361.445c0,0-4.921,14.877-81.925,6.749c0,0-50.066,1.984-51.36-14.072
			c-6.51-80.745,25.618-318.021,23.551-340.104c0,0,7.297-104.265,18.514-106.34c0,0,12.656,15.948,32.445,25.355
			c0,0,3.764-3.115,18.932,0C262.497,532.655,348.915,516.484,366.838,468.256"/>
		
			<path clip-path="url(#SVGID_4_)" fill="none" stroke="#020202" stroke-width="1.5" stroke-linecap="round" stroke-linejoin="round" stroke-miterlimit="10" d="
			M366.838,468.256c0,0-25.715,108.005-41.341,131.365c0,0,14.081,256.507-23.157,361.445c0,0-4.921,14.877-81.925,6.749
			c0,0-50.066,1.984-51.36-14.072c-6.51-80.745,25.618-318.021,23.551-340.104c0,0,7.297-104.265,18.514-106.34
			c0,0,12.656,15.948,32.445,25.355c0,0,3.764-3.115,18.932,0C262.497,532.655,348.915,516.484,366.838,468.256z"/>
		<g opacity="0.12" clip-path="url(#SVGID_4_)">
			<g>
				<defs>
					<rect id="SVGID_13_" x="171.736" y="560.298" width="34.114" height="357.796"/>
				</defs>
				<clipPath id="SVGID_14_">
					<use xlink:href="#SVGID_13_"  overflow="visible"/>
				</clipPath>
				<path clip-path="url(#SVGID_14_)" fill="#020202" d="M197.774,560.298l8.076,10.487c0,0-12.897,29.039-8.076,68.126
					c0,0-15.031,14.012-1.194,54.573c0,0,12.629,21.818-8.667,80.233c0,0-13.9,83.576,0,144.376l-9.473-4.174
					c0,0-13.547-48.784-2.126-115.804c0,0,11.735-77.345,5.712-117.906c0,0-4.102-36.532,10.58-66.571L197.774,560.298z"/>
			</g>
		</g>
	</g>
</g>
</svg>
