<?xml version="1.0" encoding="utf-8"?>
<!-- Generator: Adobe Illustrator 16.0.0, SVG Export Plug-In . SVG Version: 6.00 Build 0)  -->
<!DOCTYPE svg PUBLIC "-//W3C//DTD SVG 1.1//EN" "http://www.w3.org/Graphics/SVG/1.1/DTD/svg11.dtd">
<svg version="1.1" id="Layer_1" xmlns="http://www.w3.org/2000/svg" xmlns:xlink="http://www.w3.org/1999/xlink" x="0px" y="0px"
	 width="32px" height="32px" viewBox="0 0 32 32" enable-background="new 0 0 32 32" xml:space="preserve">
<path fill="#3A3A3C" d="M0,0v32h32V0H0z M9.609,11.589c0.021-0.206-0.058-0.409-0.212-0.547L7.833,9.156V8.875h4.858l3.754,8.235
	l3.301-8.235h4.632v0.281l-1.338,1.283c-0.115,0.088-0.173,0.232-0.149,0.375v9.424c-0.023,0.144,0.034,0.288,0.149,0.375
	l1.306,1.283v0.281h-6.571v-0.281l1.354-1.314c0.132-0.132,0.132-0.172,0.132-0.375V12.59L15.5,22.147h-0.508L10.61,12.59v6.406
	c-0.036,0.268,0.053,0.54,0.242,0.734l1.76,2.135v0.282H7.622v-0.282l1.76-2.135c0.188-0.195,0.272-0.469,0.227-0.734V11.589z"/>
</svg>
